<svg width="297" height="72" viewBox="0 0 297 72" fill="none" xmlns="http://www.w3.org/2000/svg">
<g filter="url(#filter0_d_205_13)">
<path d="M109.318 22.8182C109.114 21.0909 108.284 19.75 106.83 18.7955C105.375 17.8409 103.591 17.3636 101.477 17.3636C99.9318 17.3636 98.5795 17.6136 97.4205 18.1136C96.2727 18.6136 95.375 19.3011 94.7273 20.1761C94.0909 21.0511 93.7727 22.0455 93.7727 23.1591C93.7727 24.0909 93.9943 24.892 94.4375 25.5625C94.892 26.2216 95.4716 26.7727 96.1761 27.2159C96.8807 27.6477 97.6193 28.0057 98.392 28.2898C99.1648 28.5625 99.875 28.7841 100.523 28.9545L104.068 29.9091C104.977 30.1477 105.989 30.4773 107.102 30.8977C108.227 31.3182 109.301 31.892 110.324 32.6193C111.358 33.3352 112.21 34.2557 112.881 35.3807C113.551 36.5057 113.886 37.8864 113.886 39.5227C113.886 41.4091 113.392 43.1136 112.403 44.6364C111.426 46.1591 109.994 47.3693 108.108 48.267C106.233 49.1648 103.955 49.6136 101.273 49.6136C98.7727 49.6136 96.608 49.2102 94.7784 48.4034C92.9602 47.5966 91.5284 46.4716 90.483 45.0284C89.4489 43.5852 88.8636 41.9091 88.7273 40H93.0909C93.2045 41.3182 93.6477 42.4091 94.4205 43.2727C95.2045 44.125 96.1932 44.7614 97.3864 45.1818C98.5909 45.5909 99.8864 45.7955 101.273 45.7955C102.886 45.7955 104.335 45.5341 105.619 45.0114C106.903 44.4773 107.92 43.7386 108.67 42.7955C109.42 41.8409 109.795 40.7273 109.795 39.4545C109.795 38.2955 109.472 37.3523 108.824 36.625C108.176 35.8977 107.324 35.3068 106.267 34.8523C105.21 34.3977 104.068 34 102.841 33.6591L98.5455 32.4318C95.8182 31.6477 93.6591 30.5284 92.0682 29.0739C90.4773 27.6193 89.6818 25.7159 89.6818 23.3636C89.6818 21.4091 90.2102 19.7045 91.267 18.25C92.3352 16.7841 93.767 15.6477 95.5625 14.8409C97.3693 14.0227 99.3864 13.6136 101.614 13.6136C103.864 13.6136 105.864 14.017 107.614 14.8239C109.364 15.6193 110.75 16.7102 111.773 18.0966C112.807 19.483 113.352 21.0568 113.409 22.8182H109.318ZM131.678 22.8182V26.2273H118.109V22.8182H131.678ZM122.064 16.5455H126.087V41.5C126.087 42.6364 126.251 43.4886 126.581 44.0568C126.922 44.6136 127.354 44.9886 127.876 45.1818C128.411 45.3636 128.973 45.4545 129.564 45.4545C130.007 45.4545 130.371 45.4318 130.655 45.3864C130.939 45.3295 131.166 45.2841 131.337 45.25L132.155 48.8636C131.882 48.9659 131.501 49.0682 131.013 49.1705C130.524 49.2841 129.905 49.3409 129.155 49.3409C128.018 49.3409 126.905 49.0966 125.814 48.608C124.734 48.1193 123.837 47.375 123.121 46.375C122.416 45.375 122.064 44.1136 122.064 42.5909V16.5455ZM140.32 58.8182C139.638 58.8182 139.03 58.7614 138.496 58.6477C137.962 58.5455 137.592 58.4432 137.388 58.3409L138.411 54.7955C139.388 55.0455 140.251 55.1364 141.001 55.0682C141.751 55 142.416 54.6648 142.996 54.0625C143.587 53.4716 144.126 52.5114 144.615 51.1818L145.365 49.1364L135.683 22.8182H140.047L147.274 43.6818H147.547L154.774 22.8182H159.138L148.024 52.8182C147.524 54.1705 146.905 55.2898 146.166 56.1761C145.428 57.0739 144.57 57.7386 143.592 58.1705C142.626 58.6023 141.536 58.8182 140.32 58.8182ZM168.47 14.0909V49H164.447V14.0909H168.47ZM186.815 49.5455C184.293 49.5455 182.116 48.9886 180.287 47.875C178.469 46.75 177.065 45.1818 176.077 43.1705C175.099 41.1477 174.611 38.7955 174.611 36.1136C174.611 33.4318 175.099 31.0682 176.077 29.0227C177.065 26.9659 178.44 25.3636 180.202 24.2159C181.974 23.0568 184.043 22.4773 186.406 22.4773C187.77 22.4773 189.116 22.7045 190.446 23.1591C191.776 23.6136 192.986 24.3523 194.077 25.375C195.168 26.3864 196.037 27.7273 196.685 29.3977C197.332 31.0682 197.656 33.125 197.656 35.5682V37.2727H177.474V33.7955H193.565C193.565 32.3182 193.27 31 192.679 29.8409C192.099 28.6818 191.27 27.767 190.19 27.0966C189.122 26.4261 187.861 26.0909 186.406 26.0909C184.804 26.0909 183.418 26.4886 182.247 27.2841C181.088 28.0682 180.196 29.0909 179.571 30.3523C178.946 31.6136 178.634 32.9659 178.634 34.4091V36.7273C178.634 38.7045 178.974 40.3807 179.656 41.7557C180.349 43.1193 181.31 44.1591 182.537 44.875C183.764 45.5795 185.19 45.9318 186.815 45.9318C187.872 45.9318 188.827 45.7841 189.679 45.4886C190.543 45.1818 191.287 44.7273 191.912 44.125C192.537 43.5114 193.02 42.75 193.361 41.8409L197.247 42.9318C196.838 44.25 196.151 45.4091 195.185 46.4091C194.219 47.3977 193.026 48.1705 191.605 48.7273C190.185 49.2727 188.588 49.5455 186.815 49.5455ZM217.821 49V14.0909H222.048V29.6364H240.662V14.0909H244.889V49H240.662V33.3864H222.048V49H217.821ZM269.307 38.2955V22.8182H273.33V49H269.307V44.5682H269.034C268.42 45.8977 267.466 47.0284 266.17 47.9602C264.875 48.8807 263.239 49.3409 261.261 49.3409C259.625 49.3409 258.17 48.983 256.898 48.267C255.625 47.5398 254.625 46.4489 253.898 44.9943C253.17 43.5284 252.807 41.6818 252.807 39.4545V22.8182H256.83V39.1818C256.83 41.0909 257.364 42.6136 258.432 43.75C259.511 44.8864 260.886 45.4545 262.557 45.4545C263.557 45.4545 264.574 45.1989 265.608 44.6875C266.653 44.1761 267.528 43.392 268.233 42.3352C268.949 41.2784 269.307 39.9318 269.307 38.2955ZM292.084 22.8182V26.2273H278.516V22.8182H292.084ZM282.47 16.5455H286.493V41.5C286.493 42.6364 286.658 43.4886 286.987 44.0568C287.328 44.6136 287.76 44.9886 288.283 45.1818C288.817 45.3636 289.379 45.4545 289.97 45.4545C290.413 45.4545 290.777 45.4318 291.061 45.3864C291.345 45.3295 291.572 45.2841 291.743 45.25L292.561 48.8636C292.288 48.9659 291.908 49.0682 291.419 49.1705C290.93 49.2841 290.311 49.3409 289.561 49.3409C288.425 49.3409 287.311 49.0966 286.22 48.608C285.141 48.1193 284.243 47.375 283.527 46.375C282.822 45.375 282.47 44.1136 282.47 42.5909V16.5455Z" fill="#8D98AD"/>
<circle cx="52.5" cy="47.5" r="16.5" fill="#919AA4"/>
<circle cx="61" cy="9" r="9" fill="#919AA4"/>
<circle cx="23" cy="19" r="19" fill="#919AA4"/>
</g>
<defs>
<filter id="filter0_d_205_13" x="0" y="0" width="296.561" height="72" filterUnits="userSpaceOnUse" color-interpolation-filters="sRGB">
<feFlood flood-opacity="0" result="BackgroundImageFix"/>
<feColorMatrix in="SourceAlpha" type="matrix" values="0 0 0 0 0 0 0 0 0 0 0 0 0 0 0 0 0 0 127 0" result="hardAlpha"/>
<feOffset dy="4"/>
<feGaussianBlur stdDeviation="2"/>
<feComposite in2="hardAlpha" operator="out"/>
<feColorMatrix type="matrix" values="0 0 0 0 0 0 0 0 0 0 0 0 0 0 0 0 0 0 0.25 0"/>
<feBlend mode="normal" in2="BackgroundImageFix" result="effect1_dropShadow_205_13"/>
<feBlend mode="normal" in="SourceGraphic" in2="effect1_dropShadow_205_13" result="shape"/>
</filter>
</defs>
</svg>
