<svg width="280" height="58" viewBox="0 0 280 58" fill="none" xmlns="http://www.w3.org/2000/svg">
    <path
        d="M94.3182 19.8182C94.1136 18.0909 93.2841 16.75 91.8295 15.7955C90.375 14.8409 88.5909 14.3636 86.4773 14.3636C84.9318 14.3636 83.5795 14.6136 82.4205 15.1136C81.2727 15.6136 80.375 16.3011 79.7273 17.1761C79.0909 18.0511 78.7727 19.0455 78.7727 20.1591C78.7727 21.0909 78.9943 21.892 79.4375 22.5625C79.892 23.2216 80.4716 23.7727 81.1761 24.2159C81.8807 24.6477 82.6193 25.0057 83.392 25.2898C84.1648 25.5625 84.875 25.7841 85.5227 25.9545L89.0682 26.9091C89.9773 27.1477 90.9886 27.4773 92.1023 27.8977C93.2273 28.3182 94.3011 28.892 95.3239 29.6193C96.358 30.3352 97.2102 31.2557 97.8807 32.3807C98.5511 33.5057 98.8864 34.8864 98.8864 36.5227C98.8864 38.4091 98.392 40.1136 97.4034 41.6364C96.4261 43.1591 94.9943 44.3693 93.108 45.267C91.233 46.1648 88.9545 46.6136 86.2727 46.6136C83.7727 46.6136 81.608 46.2102 79.7784 45.4034C77.9602 44.5966 76.5284 43.4716 75.483 42.0284C74.4489 40.5852 73.8636 38.9091 73.7273 37H78.0909C78.2045 38.3182 78.6477 39.4091 79.4205 40.2727C80.2045 41.125 81.1932 41.7614 82.3864 42.1818C83.5909 42.5909 84.8864 42.7955 86.2727 42.7955C87.8864 42.7955 89.3352 42.5341 90.6193 42.0114C91.9034 41.4773 92.9205 40.7386 93.6705 39.7955C94.4205 38.8409 94.7955 37.7273 94.7955 36.4545C94.7955 35.2955 94.4716 34.3523 93.8239 33.625C93.1761 32.8977 92.3239 32.3068 91.267 31.8523C90.2102 31.3977 89.0682 31 87.8409 30.6591L83.5455 29.4318C80.8182 28.6477 78.6591 27.5284 77.0682 26.0739C75.4773 24.6193 74.6818 22.7159 74.6818 20.3636C74.6818 18.4091 75.2102 16.7045 76.267 15.25C77.3352 13.7841 78.767 12.6477 80.5625 11.8409C82.3693 11.0227 84.3864 10.6136 86.6136 10.6136C88.8636 10.6136 90.8636 11.017 92.6136 11.8239C94.3636 12.6193 95.75 13.7102 96.7727 15.0966C97.8068 16.483 98.3523 18.0568 98.4091 19.8182H94.3182ZM116.678 19.8182V23.2273H103.109V19.8182H116.678ZM107.064 13.5455H111.087V38.5C111.087 39.6364 111.251 40.4886 111.581 41.0568C111.922 41.6136 112.354 41.9886 112.876 42.1818C113.411 42.3636 113.973 42.4545 114.564 42.4545C115.007 42.4545 115.371 42.4318 115.655 42.3864C115.939 42.3295 116.166 42.2841 116.337 42.25L117.155 45.8636C116.882 45.9659 116.501 46.0682 116.013 46.1705C115.524 46.2841 114.905 46.3409 114.155 46.3409C113.018 46.3409 111.905 46.0966 110.814 45.608C109.734 45.1193 108.837 44.375 108.121 43.375C107.416 42.375 107.064 41.1136 107.064 39.5909V13.5455ZM125.32 55.8182C124.638 55.8182 124.03 55.7614 123.496 55.6477C122.962 55.5455 122.592 55.4432 122.388 55.3409L123.411 51.7955C124.388 52.0455 125.251 52.1364 126.001 52.0682C126.751 52 127.416 51.6648 127.996 51.0625C128.587 50.4716 129.126 49.5114 129.615 48.1818L130.365 46.1364L120.683 19.8182H125.047L132.274 40.6818H132.547L139.774 19.8182H144.138L133.024 49.8182C132.524 51.1705 131.905 52.2898 131.166 53.1761C130.428 54.0739 129.57 54.7386 128.592 55.1705C127.626 55.6023 126.536 55.8182 125.32 55.8182ZM153.47 11.0909V46H149.447V11.0909H153.47ZM171.815 46.5455C169.293 46.5455 167.116 45.9886 165.287 44.875C163.469 43.75 162.065 42.1818 161.077 40.1705C160.099 38.1477 159.611 35.7955 159.611 33.1136C159.611 30.4318 160.099 28.0682 161.077 26.0227C162.065 23.9659 163.44 22.3636 165.202 21.2159C166.974 20.0568 169.043 19.4773 171.406 19.4773C172.77 19.4773 174.116 19.7045 175.446 20.1591C176.776 20.6136 177.986 21.3523 179.077 22.375C180.168 23.3864 181.037 24.7273 181.685 26.3977C182.332 28.0682 182.656 30.125 182.656 32.5682V34.2727H162.474V30.7955H178.565C178.565 29.3182 178.27 28 177.679 26.8409C177.099 25.6818 176.27 24.767 175.19 24.0966C174.122 23.4261 172.861 23.0909 171.406 23.0909C169.804 23.0909 168.418 23.4886 167.247 24.2841C166.088 25.0682 165.196 26.0909 164.571 27.3523C163.946 28.6136 163.634 29.9659 163.634 31.4091V33.7273C163.634 35.7045 163.974 37.3807 164.656 38.7557C165.349 40.1193 166.31 41.1591 167.537 41.875C168.764 42.5795 170.19 42.9318 171.815 42.9318C172.872 42.9318 173.827 42.7841 174.679 42.4886C175.543 42.1818 176.287 41.7273 176.912 41.125C177.537 40.5114 178.02 39.75 178.361 38.8409L182.247 39.9318C181.838 41.25 181.151 42.4091 180.185 43.4091C179.219 44.3977 178.026 45.1705 176.605 45.7273C175.185 46.2727 173.588 46.5455 171.815 46.5455ZM202.821 46V11.0909H207.048V26.6364H225.662V11.0909H229.889V46H225.662V30.3864H207.048V46H202.821ZM254.307 35.2955V19.8182H258.33V46H254.307V41.5682H254.034C253.42 42.8977 252.466 44.0284 251.17 44.9602C249.875 45.8807 248.239 46.3409 246.261 46.3409C244.625 46.3409 243.17 45.983 241.898 45.267C240.625 44.5398 239.625 43.4489 238.898 41.9943C238.17 40.5284 237.807 38.6818 237.807 36.4545V19.8182H241.83V36.1818C241.83 38.0909 242.364 39.6136 243.432 40.75C244.511 41.8864 245.886 42.4545 247.557 42.4545C248.557 42.4545 249.574 42.1989 250.608 41.6875C251.653 41.1761 252.528 40.392 253.233 39.3352C253.949 38.2784 254.307 36.9318 254.307 35.2955ZM277.084 19.8182V23.2273H263.516V19.8182H277.084ZM267.47 13.5455H271.493V38.5C271.493 39.6364 271.658 40.4886 271.987 41.0568C272.328 41.6136 272.76 41.9886 273.283 42.1818C273.817 42.3636 274.379 42.4545 274.97 42.4545C275.413 42.4545 275.777 42.4318 276.061 42.3864C276.345 42.3295 276.572 42.2841 276.743 42.25L277.561 45.8636C277.288 45.9659 276.908 46.0682 276.419 46.1705C275.93 46.2841 275.311 46.3409 274.561 46.3409C273.425 46.3409 272.311 46.0966 271.22 45.608C270.141 45.1193 269.243 44.375 268.527 43.375C267.822 42.375 267.47 41.1136 267.47 39.5909V13.5455Z"
        fill="#555b63" />
    <circle cx="37.4773" cy="40.7045" r="12.75" fill="#555b63" />
    <circle cx="44.0455" cy="10.9545" r="6.95455" fill="#555b63" />
    <circle cx="14.6818" cy="18.6818" r="14.6818" fill="#555b63" />
</svg>